<?xml version="1.0" standalone="no"?>
<!DOCTYPE svg PUBLIC "-//W3C//DTD SVG 20010904//EN"
 "http://www.w3.org/TR/2001/REC-SVG-20010904/DTD/svg10.dtd">
<svg version="1.0" xmlns="http://www.w3.org/2000/svg"
 width="333.000000pt" height="333.000000pt" viewBox="0 0 333.000000 333.000000"
 preserveAspectRatio="xMidYMid meet">
<metadata>
Created by potrace 1.11, written by Peter Selinger 2001-2013
</metadata>
<g transform="translate(0.000000,333.000000) scale(0.100000,-0.100000)"
fill="#000000" stroke="none">
<path d="M0 1665 l0 -1665 1665 0 1665 0 0 1665 0 1665 -1665 0 -1665 0 0
-1665z m1819 785 c80 -79 179 -197 226 -267 15 -24 31 -43 34 -43 4 0 44 16
90 35 135 57 307 101 508 129 l41 6 11 -68 c55 -337 35 -611 -58 -816 l-28
-63 81 -43 c124 -65 308 -197 356 -255 17 -20 3 -33 -149 -136 -208 -141 -380
-208 -551 -217 -227 -10 -392 71 -703 347 -173 154 -211 183 -304 230 -189 95
-420 78 -693 -50 -58 -28 -135 -68 -172 -91 l-68 -40 18 -30 c32 -56 140 -145
227 -188 154 -75 208 -85 460 -84 161 0 240 5 295 16 41 9 76 15 78 13 7 -6
-165 -68 -258 -93 -83 -22 -115 -26 -260 -26 -134 -1 -177 3 -230 18 -84 25
-196 75 -257 117 -92 63 -253 232 -253 267 0 11 131 104 227 161 74 44 219
111 241 111 16 0 17 -9 -22 112 -19 58 -42 152 -51 209 -18 124 -31 380 -21
434 l7 38 142 -6 c151 -6 333 -34 433 -65 l61 -19 23 46 c56 116 177 290 285
409 l57 62 51 -42 c28 -24 84 -77 126 -118z"/>
<path d="M1558 2328 c-72 -71 -135 -144 -192 -220 l-27 -36 82 -43 c154 -80
257 -213 308 -397 29 -105 44 -296 33 -412 -5 -52 -8 -96 -7 -98 2 -2 33 28
70 65 92 94 172 216 208 321 27 80 29 95 24 182 -4 72 -13 116 -36 180 -31 84
-105 217 -165 295 -72 94 -199 235 -211 235 -8 0 -47 -33 -87 -72z"/>
<path d="M2350 2135 c-112 -17 -228 -44 -235 -55 -3 -5 3 -27 14 -49 54 -106
75 -273 50 -392 -29 -134 -138 -322 -269 -461 -38 -42 -70 -78 -70 -80 0 -10
193 13 265 32 250 64 395 211 454 460 37 153 51 370 35 508 l-7 52 -76 -1
c-42 -1 -114 -7 -161 -14z"/>
<path d="M766 2012 c-2 -4 -10 -71 -16 -149 -15 -182 7 -452 36 -446 5 1 47 9
94 19 105 21 256 14 347 -15 130 -42 281 -132 385 -230 42 -39 69 -58 73 -51
14 22 8 274 -8 348 -20 89 -67 188 -120 248 -106 121 -327 220 -585 265 -119
20 -198 24 -206 11z"/>
<path d="M2587 1296 c-25 -37 -135 -115 -222 -157 -122 -59 -324 -105 -488
-110 -36 -2 -56 -6 -54 -13 6 -20 119 -105 187 -140 160 -84 323 -86 543 -5
124 46 357 175 357 198 0 23 -268 251 -296 251 -7 0 -19 -11 -27 -24z"/>
</g>
</svg>
